<?xml version="1.0" encoding="UTF-8"?>
<svg width="19px" height="17px" viewBox="0 0 19 17" version="1.1" xmlns="http://www.w3.org/2000/svg" xmlns:xlink="http://www.w3.org/1999/xlink">
    <title>bookmark@1.5x</title>
    <g id="CLP" stroke="none" stroke-width="1" fill="#3F6078" fill-opacity="0.5">
        <path d="M9.048869,16.5828428 C8.84848762,16.5839887 8.65588982,16.5053219 8.51362002,16.3642073 L1.64584787,9.53412875 C0.592500035,8.48946366 0,7.06737236 0,5.58384049 C0,4.10030862 0.592500035,2.67821732 1.64584787,1.63355222 C3.64934394,-0.351786485 6.81158308,-0.551439057 9.048869,1.1661517 C11.2861549,-0.551439057 14.4483941,-0.351786485 16.4518901,1.63355222 C17.505238,2.67821732 18.097738,4.10030862 18.097738,5.58384049 C18.097738,7.06737236 17.505238,8.48946366 16.4518901,9.53412875 L9.58411798,16.3642073 C9.44184818,16.5053219 9.24925038,16.5839887 9.048869,16.5828428 Z M5.61121357,1.50538314 C4.52319707,1.5048858 3.47940225,1.93595951 2.70880711,2.70405019 C1.94089422,3.46561139 1.50894728,4.50232966 1.50894728,5.58384049 C1.50894728,6.66535132 1.94089422,7.70206959 2.70880711,8.46363079 L9.048869,14.7659991 L15.3889309,8.46363079 C16.1568438,7.70206959 16.5887907,6.66535132 16.5887907,5.58384049 C16.5887907,4.50232966 16.1568438,3.46561139 15.3889309,2.70405019 C13.7799858,1.11562295 11.1930631,1.11562295 9.58411798,2.70405019 C9.29007974,2.99634408 8.81519698,2.99634408 8.52115874,2.70405019 C7.74871515,1.93411154 6.70184106,1.5028862 5.61121357,1.50538314 Z" id="bookmark" fill="#888E9E" fill-rule="nonzero"></path>
    </g>
</svg>