<?xml version="1.0" encoding="UTF-8"?>
<svg width="21px" height="21px" viewBox="0 0 21 21" version="1.1" xmlns="http://www.w3.org/2000/svg" xmlns:xlink="http://www.w3.org/1999/xlink">
    <title>Shape Copy@1.5x</title>
    <g id="Page-1" stroke="none" stroke-width="1" fill="none" fill-rule="evenodd">
        <g id="Web-Eat.live-CLP+Recipe" transform="translate(-1169.000000, -2209.000000)" fill="#FF3278" fill-rule="nonzero">
            <g id="Group-24" transform="translate(0.000000, 2081.000000)">
                <g id="Group-32" transform="translate(730.000000, 117.000000)">
                    <path d="M455.805062,23.6097146 C458.117876,23.6097146 460,25.4924626 460,27.8058761 C460,30.1192749 458.11891,32 455.805062,32 C453.491559,32 451.610124,30.1186007 451.610124,27.8058761 C451.610124,27.408834 451.667698,27.017004 451.779008,26.6371168 L446.544085,24.0196792 C445.757512,25.0637678 444.528103,25.6946333 443.194938,25.6946333 C440.88109,25.6946333 439,23.8139083 439,21.5005094 C439,19.187455 440.881764,17.3063855 443.194938,17.3063855 C444.527925,17.3063855 445.756463,17.9370849 446.54309,18.9813657 L451.778998,16.3648873 C451.667695,15.9850105 451.610124,15.5931919 451.610124,15.1961615 C451.610124,12.8822234 453.490734,11 455.804043,11 C458.117891,11 459.998981,12.8807251 459.998981,15.1941239 C459.998981,17.5071783 458.117217,19.3882478 455.804043,19.3882478 C454.470878,19.3882478 453.241469,18.7573823 452.454896,17.7132937 L447.219973,20.3307313 C447.331283,20.7106185 447.388857,21.1024485 447.388857,21.4994906 C447.388857,21.8958826 447.331472,22.2875337 447.220791,22.6671309 L452.455915,25.2846687 C453.242488,24.2405801 454.471897,23.6097146 455.805062,23.6097146 Z M455.805062,12.5123519 C454.324959,12.5123519 453.119713,13.7167736 453.119713,15.1961615 C453.119713,16.6757632 454.324154,17.8799711 455.804043,17.8799711 C457.283932,17.8799711 458.488374,16.6757632 458.488374,15.1961615 C458.488374,13.7167076 457.28408,12.5123519 455.805062,12.5123519 Z M443.194938,24.1833002 C444.673956,24.1833002 445.878249,22.9789445 445.878249,21.4994906 C445.878249,20.019675 444.674613,18.815681 443.194938,18.815681 C441.715049,18.815681 440.510607,20.0198889 440.510607,21.4994906 C440.510607,22.9790923 441.715049,24.1833002 443.194938,24.1833002 Z M455.805062,30.4866293 C457.284294,30.4866293 458.488374,29.2830785 458.488374,27.8038385 C458.488374,26.3238089 457.284523,25.1190101 455.805062,25.1190101 C454.325173,25.1190101 453.120732,26.323218 453.120732,27.8028197 C453.120732,29.2824213 454.325173,30.4866293 455.805062,30.4866293 Z" id="Shape-Copy"></path>
                </g>
            </g>
        </g>
    </g>
</svg>